<svg width="80" height="80" viewBox="0 0 80 80" fill="none" xmlns="http://www.w3.org/2000/svg">
<path d="M70 70L50 50M56.6667 33.3333C56.6667 36.3975 56.0631 39.4317 54.8905 42.2626C53.7179 45.0935 51.9992 47.6658 49.8325 49.8325C47.6658 51.9992 45.0935 53.7179 42.2626 54.8905C39.4317 56.0631 36.3975 56.6667 33.3333 56.6667C30.2692 56.6667 27.235 56.0631 24.4041 54.8905C21.5731 53.7179 19.0009 51.9992 16.8342 49.8325C14.6675 47.6658 12.9488 45.0935 11.7761 42.2626C10.6035 39.4317 10 36.3975 10 33.3333C10 27.1449 12.4583 21.21 16.8342 16.8342C21.21 12.4583 27.1449 10 33.3333 10C39.5217 10 45.4566 12.4583 49.8325 16.8342C54.2083 21.21 56.6667 27.1449 56.6667 33.3333Z" stroke="white" stroke-width="4" stroke-linecap="round" stroke-linejoin="round"/>
</svg>
