<svg width="40" height="40" viewBox="0 0 40 40" fill="none" xmlns="http://www.w3.org/2000/svg">
<path d="M35 18.3333C35 27.5833 28.6 36.2333 20 38.3333C11.4 36.2333 5 27.5833 5 18.3333V8.33329L20 1.66663L35 8.33329V18.3333ZM20 35C26.25 33.3333 31.6667 25.9 31.6667 18.7V10.5L20 5.29996L8.33333 10.5V18.7C8.33333 25.9 13.75 33.3333 20 35ZM24.6667 18.3333V15.8333C24.6667 13.5 22.3333 11.6666 20 11.6666C17.6667 11.6666 15.3333 13.5 15.3333 15.8333V18.3333C14.3333 18.3333 13.3333 19.3333 13.3333 20.3333V26.1666C13.3333 27.3333 14.3333 28.3333 15.3333 28.3333H24.5C25.6667 28.3333 26.6667 27.3333 26.6667 26.3333V20.5C26.6667 19.3333 25.6667 18.3333 24.6667 18.3333ZM22.5 18.3333H17.5V15.8333C17.5 14.5 18.6667 13.6666 20 13.6666C21.3333 13.6666 22.5 14.5 22.5 15.8333V18.3333Z" fill="#162F86"/>
</svg>
