<svg width="100" height="100" viewBox="0 0 100 100" fill="none" xmlns="http://www.w3.org/2000/svg">
<path d="M81.2504 62.4999C79.1398 62.5083 77.0951 63.2358 75.4535 64.5624L68.7504 60.6968V55.6781C70.8354 54.9409 72.5927 53.4904 73.7117 51.5828C74.8307 49.6753 75.2393 47.4336 74.8654 45.2539C74.4914 43.0742 73.3589 41.0969 71.6681 39.6715C69.9772 38.246 67.8369 37.4642 65.6254 37.4642C63.4139 37.4642 61.2735 38.246 59.5827 39.6715C57.8919 41.0969 56.7594 43.0742 56.3854 45.2539C56.0114 47.4336 56.4201 49.6753 57.539 51.5828C58.658 53.4904 60.4153 54.9409 62.5004 55.6781V60.6968L55.7973 64.5687C54.1565 63.2398 52.1117 62.5101 50.0004 62.4999C48.0416 62.4867 46.1272 63.0833 44.5227 64.207C42.9181 65.3307 41.7031 66.9259 41.0459 68.7712C40.3888 70.6166 40.3221 72.6207 40.8552 74.5056C41.3883 76.3905 42.4948 78.0629 44.0211 79.2907C45.5474 80.5185 47.4179 81.241 49.3733 81.3579C51.3287 81.4748 53.272 80.9804 54.9337 79.9431C56.5954 78.9059 57.8932 77.3773 58.6471 75.5693C59.401 73.7613 59.5736 71.7636 59.141 69.8531L65.6254 66.1062L72.1098 69.8499C71.6917 71.7444 71.8721 73.7219 72.626 75.5095C73.38 77.297 74.6702 78.8065 76.3187 79.8294C77.9672 80.8523 79.8925 81.3382 81.829 81.2201C83.7654 81.1019 85.6174 80.3855 87.1293 79.1698C88.6412 77.9541 89.7384 76.299 90.2694 74.4331C90.8004 72.5671 90.7391 70.5823 90.0938 68.7527C89.4486 66.9231 88.2513 65.339 86.6672 64.2189C85.0831 63.0989 83.1904 62.4983 81.2504 62.4999ZM50.0004 74.9999C49.3823 74.9999 48.7781 74.8167 48.2642 74.4733C47.7503 74.1299 47.3498 73.6418 47.1133 73.0708C46.8767 72.4998 46.8149 71.8715 46.9354 71.2653C47.056 70.6591 47.3536 70.1023 47.7907 69.6652C48.2277 69.2282 48.7845 68.9306 49.3907 68.81C49.9969 68.6894 50.6253 68.7513 51.1963 68.9878C51.7673 69.2243 52.2554 69.6249 52.5987 70.1388C52.9421 70.6527 53.1254 71.2569 53.1254 71.8749C53.1254 72.7037 52.7962 73.4986 52.2101 74.0847C51.6241 74.6707 50.8292 74.9999 50.0004 74.9999ZM65.6254 43.7499C66.2435 43.7499 66.8476 43.9332 67.3615 44.2766C67.8755 44.62 68.276 45.108 68.5125 45.6791C68.749 46.2501 68.8109 46.8784 68.6903 47.4846C68.5698 48.0908 68.2721 48.6476 67.8351 49.0847C67.3981 49.5217 66.8412 49.8193 66.235 49.9399C65.6289 50.0605 65.0005 49.9986 64.4295 49.7621C63.8585 49.5255 63.3704 49.125 63.027 48.6111C62.6837 48.0972 62.5004 47.493 62.5004 46.8749C62.5004 46.0461 62.8296 45.2513 63.4157 44.6652C64.0017 44.0792 64.7966 43.7499 65.6254 43.7499ZM81.2504 74.9999C80.6323 74.9999 80.0281 74.8167 79.5142 74.4733C79.0003 74.1299 78.5998 73.6418 78.3633 73.0708C78.1267 72.4998 78.0649 71.8715 78.1854 71.2653C78.306 70.6591 78.6036 70.1023 79.0407 69.6652C79.4777 69.2282 80.0345 68.9306 80.6407 68.81C81.2469 68.6894 81.8753 68.7513 82.4463 68.9878C83.0173 69.2243 83.5054 69.6249 83.8487 70.1388C84.1921 70.6527 84.3754 71.2569 84.3754 71.8749C84.3754 72.7037 84.0462 73.4986 83.4601 74.0847C82.874 74.6707 82.0792 74.9999 81.2504 74.9999Z" fill="#06B3FF"/>
<path d="M50 96.875C40.8862 96.865 32.1486 93.2402 25.7042 86.7958C19.2598 80.3514 15.6349 71.6137 15.625 62.5V19.9437L49.9594 2.75623L82.6469 19.1219L79.85 24.7094L49.9594 9.74373L21.875 23.8062V62.5C21.8744 67.7234 23.3285 72.8438 26.0742 77.2873C28.82 81.7308 32.7489 85.3219 37.4207 87.6582C42.0926 89.9944 47.3227 90.9835 52.525 90.5145C57.7273 90.0456 62.6963 88.1371 66.875 85.0031L70.625 90C64.6847 94.4814 57.4411 96.8959 50 96.875Z" fill="#06B3FF"/>
</svg>
