<svg width="38" height="38" viewBox="0 0 38 38" fill="none" xmlns="http://www.w3.org/2000/svg">
<path d="M25.2545 34.8333L18.5253 28.1041L20.742 25.8874L25.2545 30.3999L34.2003 21.4541L36.417 23.6708L25.2545 34.8333ZM19.0003 17.4166L31.667 9.49992H6.33366L19.0003 17.4166ZM19.0003 20.5833L6.33366 12.6666V28.4999H14.4878L17.6545 31.6666H6.33366C5.46283 31.6666 4.71708 31.3563 4.09641 30.7356C3.47574 30.1149 3.16594 29.3697 3.16699 28.4999V9.49992C3.16699 8.62909 3.47733 7.88334 4.09799 7.26267C4.71866 6.642 5.46388 6.3322 6.33366 6.33325H31.667C32.5378 6.33325 33.2836 6.64359 33.9042 7.26425C34.5249 7.88492 34.8347 8.63014 34.8337 9.49992V16.3874L31.667 19.5541V12.6666L19.0003 20.5833Z" fill="#06B3FF"/>
</svg>
