<svg width="100" height="100" viewBox="0 0 100 100" fill="none" xmlns="http://www.w3.org/2000/svg">
<path d="M59.375 75H71.875V87.5H59.375V75ZM81.25 75H93.75V87.5H81.25V75ZM59.375 53.125H71.875V65.625H59.375V53.125ZM81.25 53.125H93.75V65.625H81.25V53.125Z" fill="#06B3FF"/>
<path d="M53.125 75H12.5V31.25H87.5V46.875H93.75V31.25C93.7483 29.5929 93.0893 28.0042 91.9176 26.8324C90.7458 25.6607 89.1571 25.0017 87.5 25H68.75V12.5C68.7483 10.8429 68.0893 9.25415 66.9176 8.08241C65.7458 6.91067 64.1571 6.25165 62.5 6.25H37.5C35.8429 6.25165 34.2542 6.91067 33.0824 8.08241C31.9107 9.25415 31.2517 10.8429 31.25 12.5V25H12.5C10.8429 25.0017 9.25415 25.6607 8.08241 26.8324C6.91067 28.0042 6.25165 29.5929 6.25 31.25V75C6.25165 76.6571 6.91067 78.2458 8.08241 79.4176C9.25415 80.5893 10.8429 81.2483 12.5 81.25H53.125V75ZM37.5 12.5H62.5V25H37.5V12.5Z" fill="#06B3FF"/>
</svg>
