<svg width="38" height="38" viewBox="0 0 38 38" fill="none" xmlns="http://www.w3.org/2000/svg">
<path d="M18.9997 19.0001C19.8705 19.0001 20.6163 18.6897 21.2369 18.0691C21.8576 17.4484 22.1674 16.7032 22.1663 15.8334C22.1663 14.9626 21.856 14.2168 21.2353 13.5962C20.6147 12.9755 19.8695 12.6657 18.9997 12.6667C18.1288 12.6667 17.3831 12.9771 16.7624 13.5977C16.1418 14.2184 15.832 14.9636 15.833 15.8334C15.833 16.7042 16.1433 17.45 16.764 18.0707C17.3847 18.6913 18.1299 19.0011 18.9997 19.0001ZM18.9997 30.6376C22.2191 27.682 24.6073 24.9967 26.1643 22.5816C27.7212 20.1665 28.4997 18.0226 28.4997 16.1501C28.4997 13.2737 27.5824 10.9187 25.7478 9.08525C23.9133 7.25175 21.6639 6.33447 18.9997 6.33341C16.3344 6.33341 14.0845 7.25069 12.2499 9.08525C10.4154 10.9198 9.49862 13.2747 9.49967 16.1501C9.49967 18.0237 10.2781 20.1681 11.8351 22.5832C13.392 24.9983 15.7802 27.6831 18.9997 30.6376ZM18.9997 34.2397C18.7886 34.2397 18.5775 34.2001 18.3663 34.1209C18.1552 34.0417 17.9705 33.9362 17.8122 33.8042C13.9594 30.4001 11.083 27.2397 9.18301 24.3232C7.28301 21.4067 6.33301 18.6824 6.33301 16.1501C6.33301 12.1917 7.60654 9.03828 10.1536 6.68966C12.7006 4.34105 15.6493 3.16675 18.9997 3.16675C22.3511 3.16675 25.3003 4.34105 27.8473 6.68966C30.3944 9.03828 31.6674 12.1917 31.6663 16.1501C31.6663 18.6834 30.7163 21.4083 28.8163 24.3248C26.9163 27.2413 24.04 30.4011 20.1872 33.8042C20.0288 33.9362 19.8441 34.0417 19.633 34.1209C19.4219 34.2001 19.2108 34.2397 18.9997 34.2397Z" fill="#06B3FF"/>
</svg>
