<svg width="309" height="90" viewBox="0 0 309 90" fill="none" xmlns="http://www.w3.org/2000/svg">
<path d="M100.211 22.6162C104.104 22.6162 107.14 24.3976 107.14 28.4252C107.14 30.1291 106.245 31.6782 104.298 32.4527C106.751 33.1885 107.763 35.5895 107.763 37.1386C107.763 41.5921 104.22 42.9475 100.172 42.9475C96.9792 42.9475 93.9815 42.9475 90.7891 42.9475V22.6162H100.211ZM94.0982 31.0198H100.249C102.702 31.0198 103.909 30.0517 103.909 28.4639C103.909 27.031 102.663 25.5207 100.211 25.5207H94.0982V31.0198ZM94.0982 39.8882H100.211C102.001 39.8882 104.532 39.3073 104.532 37.0611C104.532 34.8925 102.118 33.8856 100.249 33.8856C98.1861 33.8856 96.1616 33.8856 94.0982 33.8856V39.8882Z" fill="white"/>
<path d="M111.111 42.9088V22.6162H114.343V42.9475H111.111V42.9088Z" fill="white"/>
<path d="M136.611 27.3408L129.681 36.945H128.981L122.129 27.3408V42.9088H118.858V22.6162C120.143 22.6162 121.35 22.6162 122.635 22.6162L129.37 32.1429L136.066 22.6162H139.843V42.9475H136.572V27.3408H136.611Z" fill="white"/>
<path d="M144.358 42.9088V22.6162H147.59V42.9475H144.358V42.9088Z" fill="white"/>
<path d="M166.2 37.0611V22.6162H169.47V42.9475H166.978L155.377 28.6188V42.9475H152.067V22.6162H154.559L166.2 37.0611Z" fill="white"/>
<path d="M173.947 42.9088V22.6162H177.179V42.9475H173.947V42.9088Z" fill="white"/>
<path d="M104.61 51.0414C103.636 49.6473 101.69 48.7953 99.5485 48.7953C96.8233 48.7953 94.8378 49.9183 94.8378 51.8547C94.8378 53.8297 97.0958 54.3719 99.7821 54.7591C103.987 55.34 107.997 56.5018 107.997 61.0715C107.958 65.6412 103.792 67.3452 99.5485 67.3452C95.6554 67.3452 92.6187 66.1447 90.75 62.7368L93.2027 61.1103C94.6432 63.5887 97.2126 64.4407 99.5485 64.4407C102.001 64.4407 104.726 63.6275 104.726 61.0715C104.726 58.8641 102.352 58.1283 99.5096 57.7411C95.4607 57.1989 91.6065 56.192 91.6065 51.8159C91.5676 47.5948 95.8111 45.9683 99.4707 45.9683C102.429 45.9683 105.349 46.6653 107.101 49.3762L104.61 51.0414Z" fill="white"/>
<path d="M125.087 66.8803V58.438H114.303V66.8803H111.033V46.549H114.303V55.3786H125.087V46.5103H128.319V66.8416H125.087V66.8803Z" fill="white"/>
<path d="M132.835 66.8804V46.5491H136.066V66.8804H132.835Z" fill="white"/>
<path d="M143.852 60.6068V66.8417H140.582V46.5104C143.697 46.5104 146.928 46.4717 150.042 46.4717C159.775 46.4717 159.814 60.5293 150.042 60.5681H143.852V60.6068ZM143.852 57.6249H150.042C155.454 57.6249 155.415 49.4923 150.042 49.4923H143.852V57.6249Z" fill="white"/>
<path d="M169.469 46.5491C173.362 46.5491 176.399 48.3305 176.399 52.358C176.399 54.062 175.504 55.611 173.557 56.3856C176.01 57.1214 177.022 59.5224 177.022 61.0714C177.022 65.525 173.479 66.8804 169.43 66.8804C166.238 66.8804 163.24 66.8804 160.048 66.8804V46.5491H169.469ZM163.318 54.9527H169.469C171.922 54.9527 173.129 53.9845 173.129 52.3968C173.129 50.9639 171.883 49.4535 169.43 49.4535H163.318V54.9527ZM163.318 63.8597H169.43C171.221 63.8597 173.752 63.2789 173.752 61.0327C173.752 58.8641 171.338 57.8572 169.469 57.8572C167.406 57.8572 165.381 57.8572 163.318 57.8572V63.8597Z" fill="white"/>
<path d="M197.968 66.8804H194.153L187.924 59.8709H183.602V66.8804H180.332V46.5491C183.524 46.5491 186.678 46.5878 189.831 46.5878C194.542 46.5878 197.034 49.8021 197.034 53.2487C197.034 56.1532 195.515 58.9802 191.505 59.5611L197.618 66.3382L197.968 66.8804ZM183.602 49.4923V56.8503H189.831C192.557 56.8503 193.724 55.1463 193.724 53.21C193.724 51.3899 192.518 49.4535 189.831 49.4535H183.602V49.4923Z" fill="white"/>
<path d="M220.354 56.7728C220.354 62.2719 217.006 67.2676 209.92 67.2676C202.834 67.2676 199.486 62.117 199.486 56.7728C199.486 50.5766 203.847 46.123 209.998 46.123C216.967 46.2005 220.354 51.3124 220.354 56.7728ZM209.92 64.3244C214.981 64.3244 217.122 60.7616 217.122 56.8502C217.122 53.0938 214.981 49.2212 209.959 49.1437C205.248 49.1437 202.679 52.4354 202.679 56.8502C202.795 60.4518 204.859 64.3244 209.92 64.3244Z" fill="white"/>
<path d="M239.235 46.6652L229.853 56.3467L240.053 66.6479V66.8416H235.965L226.855 57.586V66.8416H223.585V46.5103H226.855V55.2624L235.187 46.5103H239.235V46.6652Z" fill="white"/>
<path d="M256.949 66.8804H241.844C241.844 60.1033 241.844 53.3262 241.844 46.5491H256.832V49.7246H245.114V55.2238H256.365V58.2444H245.114V63.7048H256.949V66.8804Z" fill="white"/>
<path d="M278.166 66.8804H274.351L268.122 59.8709H263.801V66.8804H260.53V46.5491C263.723 46.5491 266.876 46.5878 270.03 46.5878C274.74 46.5878 277.232 49.8021 277.232 53.2487C277.232 56.1532 275.714 58.9802 271.704 59.5611L277.816 66.3382L278.166 66.8804ZM263.801 49.4923V56.8503H270.03C272.755 56.8503 273.923 55.1463 273.923 53.21C273.923 51.3899 272.716 49.4535 270.03 49.4535H263.801V49.4923Z" fill="white"/>
<path d="M293.116 51.0414C292.143 49.6473 290.197 48.7953 288.055 48.7953C285.33 48.7953 283.345 49.9183 283.345 51.8547C283.345 53.8297 285.603 54.3719 288.289 54.7591C292.494 55.34 296.504 56.5018 296.504 61.0715C296.465 65.6412 292.299 67.3452 288.055 67.3452C284.162 67.3452 281.126 66.1447 279.257 62.7368L281.71 61.1103C283.15 63.5887 285.719 64.4407 288.055 64.4407C290.508 64.4407 293.233 63.6275 293.233 61.0715C293.233 58.8641 290.858 58.1283 288.016 57.7411C283.968 57.1989 280.113 56.192 280.113 51.8159C280.074 47.5948 284.318 45.9683 287.978 45.9683C290.936 45.9683 293.856 46.6653 295.608 49.3762L293.116 51.0414Z" fill="white"/>
<path d="M60.1107 31.4071C54.5435 25.8693 50.1831 19.4407 47.1075 12.47C44.0319 19.4407 39.6716 25.8693 34.1044 31.4071C28.1868 37.2935 21.2959 41.8633 13.7432 44.9226C21.257 47.982 28.1868 52.5517 34.0655 58.4381C39.6327 63.976 43.993 70.4046 47.0686 77.3753C50.1442 70.4046 54.5045 63.976 60.0717 58.4381C65.9894 52.5517 72.8802 48.0207 80.394 44.9226C72.9192 41.8633 66.0283 37.2935 60.1107 31.4071ZM57.7748 56.1145C56.3343 57.5474 54.9328 59.0965 53.648 60.6455C51.0786 57.0827 48.8984 53.2875 47.1465 49.2987C45.7449 52.4355 44.1098 55.4949 42.2022 58.3994C42.9419 59.2901 43.6816 60.1808 44.3823 61.1102C45.3556 59.6774 46.29 58.167 47.1854 56.6567C48.5091 58.9803 49.9885 61.2264 51.5847 63.3564C49.9885 65.4863 48.5091 67.7324 47.1854 70.056C44.3045 64.9829 40.7228 60.297 36.5181 56.1533C32.041 51.6997 27.0188 47.9433 21.5295 44.9614C27.0188 41.9794 32.041 38.2617 36.5181 33.7694C40.7228 29.587 44.2655 24.9398 47.1854 19.8667C50.0663 24.9398 53.648 29.6257 57.8527 33.7694C62.3298 38.223 67.352 41.9794 72.8413 44.9614C67.2741 47.9046 62.2519 51.6223 57.7748 56.1145Z" fill="#06B3FF"/>
<path d="M53.8812 53.0165L47.1071 47.4012L40.333 53.0165V35.7058L47.1071 23.2747L53.8812 35.7058V53.0165ZM47.1071 43.1025L50.572 45.9683V36.5578L47.1071 30.1679L43.6033 36.5578V46.007L47.1071 43.1025Z" fill="white"/>
</svg>
