<svg width="85" height="85" viewBox="0 0 85 85" fill="none" xmlns="http://www.w3.org/2000/svg">
<path d="M42.5 79.6875L26.095 70.9405C21.4182 68.4524 17.5073 64.7377 14.7818 60.1952C12.0564 55.6526 10.6194 50.4537 10.625 45.1562V10.625C10.6264 9.21647 11.1866 7.86603 12.1826 6.87005C13.1785 5.87407 14.529 5.31391 15.9375 5.3125H69.0625C70.471 5.31391 71.8215 5.87407 72.8175 6.87005C73.8135 7.86603 74.3736 9.21647 74.375 10.625V45.1562C74.3806 50.4537 72.9436 55.6526 70.2182 60.1952C67.4928 64.7377 63.5818 68.4524 58.905 70.9405L42.5 79.6875ZM15.9375 10.625V45.1562C15.9331 49.4907 17.1092 53.7446 19.3395 57.4612C21.5699 61.1778 24.7703 64.2169 28.5972 66.2522L42.5 73.6658L56.4028 66.2548C60.2301 64.2193 63.4308 61.1799 65.6612 57.4627C67.8915 53.7456 69.0674 49.4912 69.0625 45.1562V10.625H15.9375Z" fill="white"/>
<path d="M42.5 67.142V15.9375H63.75V44.6383C63.7498 48.0051 62.8355 51.3088 61.1046 54.1966C59.3737 57.0844 56.8911 59.4481 53.9219 61.0353L42.5 67.142Z" fill="white"/>
</svg>
