<svg width="26" height="25" viewBox="0 0 26 25" fill="none" xmlns="http://www.w3.org/2000/svg">
<path d="M17.1143 22.9167L12.6872 18.4897L14.1455 17.0313L17.1143 20.0001L22.9997 14.1147L24.458 15.573L17.1143 22.9167ZM12.9997 11.4584L21.333 6.25008H4.66634L12.9997 11.4584ZM12.9997 13.5417L4.66634 8.33342V18.7501H10.0309L12.1143 20.8334H4.66634C4.09343 20.8334 3.6028 20.6293 3.19447 20.2209C2.78613 19.8126 2.58232 19.3223 2.58301 18.7501V6.25008C2.58301 5.67717 2.78718 5.18654 3.19551 4.77821C3.60384 4.36987 4.09412 4.16606 4.66634 4.16675H21.333C21.9059 4.16675 22.3966 4.37092 22.8049 4.77925C23.2132 5.18758 23.417 5.67786 23.4163 6.25008V10.7813L21.333 12.8647V8.33342L12.9997 13.5417Z" fill="white"/>
</svg>
