<svg width="26" height="25" viewBox="0 0 26 25" fill="none" xmlns="http://www.w3.org/2000/svg">
<path d="M15.3701 3.70415C15.3966 3.605 15.4424 3.51205 15.5049 3.4306C15.5674 3.34916 15.6452 3.28082 15.7341 3.22949C15.823 3.17816 15.9211 3.14484 16.0229 3.13145C16.1246 3.11805 16.228 3.12484 16.3272 3.15141C17.7755 3.52929 19.0969 4.28642 20.1552 5.34481C21.2136 6.4032 21.9708 7.72459 22.3486 9.1729C22.3752 9.27203 22.382 9.37543 22.3686 9.47719C22.3552 9.57894 22.3219 9.67706 22.2706 9.76594C22.2192 9.85481 22.1509 9.9327 22.0695 9.99516C21.988 10.0576 21.8951 10.1034 21.7959 10.1299C21.7299 10.1473 21.662 10.1561 21.5938 10.1563C21.4216 10.1563 21.2543 10.0994 21.1178 9.99452C20.9812 9.88962 20.8832 9.74257 20.8389 9.57622C20.5307 8.39392 19.9128 7.31519 19.0488 6.45124C18.1849 5.58729 17.1061 4.96937 15.9238 4.66118C15.8246 4.63476 15.7315 4.58904 15.65 4.52663C15.5684 4.46422 15.5 4.38635 15.4486 4.29746C15.3971 4.20857 15.3637 4.11042 15.3503 4.00861C15.3368 3.90681 15.3436 3.80335 15.3701 3.70415ZM15.1426 7.78618C16.4893 8.14555 17.3545 9.01079 17.7139 10.3575C17.7582 10.5238 17.8562 10.6709 17.9928 10.7758C18.1293 10.8807 18.2966 10.9375 18.4688 10.9375C18.537 10.9374 18.6049 10.9285 18.6709 10.9112C18.7701 10.8847 18.863 10.8389 18.9445 10.7764C19.0259 10.714 19.0942 10.6361 19.1456 10.5472C19.1969 10.4583 19.2302 10.3602 19.2436 10.2584C19.257 10.1567 19.2502 10.0533 19.2236 9.95415C18.7236 8.08305 17.417 6.77641 15.5459 6.27641C15.4468 6.24993 15.3434 6.24323 15.2417 6.2567C15.14 6.27017 15.0419 6.30355 14.9531 6.35492C14.8642 6.40629 14.7864 6.47465 14.724 6.55611C14.6616 6.63756 14.6158 6.7305 14.5894 6.82964C14.5629 6.92877 14.5562 7.03215 14.5697 7.13387C14.5831 7.23559 14.6165 7.33366 14.6679 7.42248C14.7192 7.51131 14.7876 7.58914 14.8691 7.65155C14.9505 7.71395 15.0435 7.7597 15.1426 7.78618ZM23.1445 17.0977C22.9704 18.421 22.3205 19.6356 21.3163 20.5148C20.3121 21.3939 19.0222 21.8774 17.6875 21.875C9.9336 21.875 3.62501 15.5665 3.62501 7.81255C3.62262 6.47787 4.10615 5.18796 4.9853 4.18373C5.86444 3.17951 7.07908 2.52964 8.40235 2.35552C8.73697 2.31466 9.07584 2.38311 9.36836 2.55067C9.66087 2.71823 9.89136 2.97589 10.0254 3.2852L12.0879 7.88969V7.90141C12.1905 8.13818 12.2329 8.39669 12.2113 8.65383C12.1896 8.91098 12.1046 9.15876 11.9639 9.37505C11.9463 9.40141 11.9277 9.42583 11.9082 9.45024L9.87501 11.8604C10.6065 13.3467 12.1611 14.8877 13.667 15.6211L16.044 13.5987C16.0673 13.5791 16.0918 13.5608 16.1172 13.544C16.3333 13.3999 16.5819 13.3119 16.8406 13.288C17.0993 13.2641 17.3598 13.3051 17.5986 13.4073L17.6113 13.4131L22.2119 15.4747C22.5218 15.6082 22.7801 15.8385 22.9482 16.1311C23.1163 16.4236 23.1852 16.7627 23.1445 17.0977ZM21.5938 16.9024H21.583L16.9932 14.8467L14.6152 16.8692C14.5922 16.8887 14.5681 16.907 14.543 16.9239C14.3181 17.0739 14.0582 17.163 13.7886 17.1825C13.519 17.202 13.249 17.1513 13.0049 17.0352C11.1758 16.1514 9.35255 14.3418 8.46778 12.5323C8.35062 12.2899 8.29805 12.0215 8.31516 11.7528C8.33227 11.4842 8.41848 11.2246 8.56544 10.9991C8.582 10.9726 8.60062 10.9474 8.6211 10.9239L10.6563 8.51079L8.60548 3.92095C8.60509 3.91705 8.60509 3.91312 8.60548 3.90923C7.65846 4.03276 6.78895 4.49728 6.15979 5.21578C5.53062 5.93429 5.18495 6.85751 5.18751 7.81255C5.19113 11.1266 6.50925 14.304 8.85267 16.6474C11.1961 18.9908 14.3734 20.3089 17.6875 20.3125C18.642 20.3158 19.5649 19.9714 20.2839 19.3436C21.0028 18.7158 21.4684 17.8476 21.5938 16.9014V16.9024Z" fill="white"/>
</svg>
