<svg width="128" height="128" viewBox="0 0 128 128" fill="none" xmlns="http://www.w3.org/2000/svg">
<g id="ph:smiley-thin">
<path id="Vector" d="M85.73 77C80.955 85.26 73.035 90 64 90C54.965 90 47.045 85.26 42.27 77C42.0309 76.5429 41.9777 76.0111 42.1214 75.5157C42.2651 75.0203 42.5947 74.5996 43.0413 74.3414C43.4879 74.0833 44.017 74.0077 44.518 74.1304C45.019 74.2531 45.4533 74.5647 45.73 75C49.835 82.095 56.325 86 64 86C71.675 86 78.165 82.095 82.27 75C82.395 74.761 82.5671 74.5497 82.7759 74.379C82.9847 74.2082 83.2259 74.0814 83.4849 74.0062C83.744 73.9311 84.0156 73.9091 84.2834 73.9416C84.5511 73.9742 84.8096 74.0605 85.0431 74.1955C85.2766 74.3305 85.4804 74.5113 85.6423 74.7271C85.8041 74.9429 85.9206 75.1892 85.9848 75.4512C86.0489 75.7132 86.0594 75.9855 86.0157 76.2516C85.9719 76.5178 85.8747 76.7724 85.73 77ZM114 64C114 73.8891 111.068 83.5561 105.574 91.7785C100.079 100.001 92.2705 106.41 83.1342 110.194C73.9979 113.978 63.9446 114.969 54.2455 113.039C44.5465 111.11 35.6373 106.348 28.6447 99.3553C21.6521 92.3627 16.89 83.4536 14.9608 73.7545C13.0315 64.0555 14.0217 54.0021 17.806 44.8658C21.5904 35.7295 27.9991 27.9206 36.2215 22.4265C44.444 16.9324 54.111 14 64 14C77.2564 14.0146 89.9656 19.2871 99.3393 28.6607C108.713 38.0344 113.985 50.7436 114 64ZM110 64C110 54.9021 107.302 46.0084 102.248 38.4438C97.1931 30.8791 90.0089 24.9832 81.6035 21.5015C73.1981 18.0199 63.949 17.109 55.0259 18.8839C46.1027 20.6588 37.9063 25.0399 31.4731 31.4731C25.0399 37.9063 20.6588 46.1027 18.8839 55.0258C17.109 63.949 18.0199 73.198 21.5016 81.6034C24.9832 90.0088 30.8791 97.1931 38.4438 102.248C46.0085 107.302 54.9021 110 64 110C76.1959 109.987 87.8885 105.136 96.5123 96.5123C105.136 87.8885 109.987 76.1959 110 64ZM46 58C46.7911 58 47.5645 57.7654 48.2223 57.3259C48.8801 56.8864 49.3928 56.2616 49.6955 55.5307C49.9983 54.7998 50.0775 53.9956 49.9232 53.2196C49.7688 52.4437 49.3879 51.731 48.8284 51.1716C48.269 50.6122 47.5563 50.2312 46.7804 50.0769C46.0045 49.9225 45.2002 50.0017 44.4693 50.3045C43.7384 50.6072 43.1137 51.1199 42.6741 51.7777C42.2346 52.4355 42 53.2089 42 54C42 55.0609 42.4215 56.0783 43.1716 56.8284C43.9217 57.5786 44.9392 58 46 58ZM82 50C81.2089 50 80.4355 50.2346 79.7777 50.6741C79.1199 51.1136 78.6073 51.7384 78.3045 52.4693C78.0018 53.2002 77.9225 54.0044 78.0769 54.7804C78.2312 55.5563 78.6122 56.269 79.1716 56.8284C79.731 57.3878 80.4437 57.7688 81.2197 57.9231C81.9956 58.0775 82.7998 57.9983 83.5308 57.6955C84.2617 57.3928 84.8864 56.8801 85.3259 56.2223C85.7654 55.5645 86 54.7911 86 54C86 52.9391 85.5786 51.9217 84.8285 51.1716C84.0783 50.4214 83.0609 50 82 50Z" fill="white"/>
</g>
</svg>
