<svg width="38" height="38" viewBox="0 0 38 38" fill="none" xmlns="http://www.w3.org/2000/svg">
<path d="M22.6026 5.63018C22.6429 5.47947 22.7125 5.33819 22.8074 5.21439C22.9024 5.0906 23.0208 4.98672 23.1559 4.9087C23.291 4.83068 23.4401 4.78004 23.5948 4.75967C23.7494 4.73931 23.9066 4.74962 24.0573 4.79002C26.2587 5.3644 28.2672 6.51523 29.876 8.12398C31.4847 9.73274 32.6356 11.7413 33.2099 13.9427C33.2503 14.0934 33.2606 14.2505 33.2403 14.4052C33.2199 14.5599 33.1693 14.709 33.0913 14.8441C33.0132 14.9792 32.9094 15.0976 32.7856 15.1925C32.6618 15.2874 32.5205 15.3571 32.3698 15.3974C32.2695 15.4237 32.1662 15.4372 32.0625 15.4374C31.8008 15.4374 31.5465 15.351 31.339 15.1915C31.1315 15.0321 30.9825 14.8086 30.9151 14.5557C30.4466 12.7586 29.5074 11.119 28.1942 9.80576C26.881 8.49255 25.2413 7.55332 23.4442 7.08487C23.2934 7.04472 23.1519 6.97522 23.028 6.88036C22.904 6.78549 22.8 6.66712 22.7218 6.53201C22.6437 6.39691 22.5929 6.24771 22.5724 6.09297C22.552 5.93822 22.5622 5.78096 22.6026 5.63018ZM22.2567 11.8349C24.3037 12.3811 25.6188 13.6963 26.1651 15.7432C26.2325 15.9961 26.3815 16.2196 26.589 16.379C26.7965 16.5385 27.0508 16.6249 27.3125 16.6249C27.4162 16.6247 27.5195 16.6112 27.6198 16.5849C27.7705 16.5446 27.9118 16.4749 28.0356 16.38C28.1594 16.2851 28.2632 16.1667 28.3413 16.0316C28.4193 15.8965 28.4699 15.7474 28.4903 15.5927C28.5106 15.438 28.5003 15.2809 28.4599 15.1302C27.6999 12.2861 25.7138 10.3 22.8698 9.54002C22.7191 9.49977 22.562 9.48959 22.4073 9.51006C22.2527 9.53054 22.1037 9.58127 21.9687 9.65935C21.8336 9.73743 21.7153 9.84135 21.6205 9.96515C21.5256 10.089 21.4561 10.2302 21.4158 10.3809C21.3756 10.5316 21.3654 10.6887 21.3859 10.8434C21.4063 10.998 21.4571 11.147 21.5352 11.282C21.6132 11.4171 21.7172 11.5354 21.841 11.6302C21.9648 11.7251 22.1061 11.7946 22.2567 11.8349ZM34.4197 25.9884C34.155 27.9998 33.1672 29.846 31.6408 31.1823C30.1144 32.5186 28.1537 33.2536 26.125 33.2499C14.3391 33.2499 4.75001 23.6609 4.75001 11.8749C4.74638 9.84624 5.48135 7.88557 6.81765 6.35915C8.15395 4.83273 10.0002 3.84493 12.0116 3.58026C12.5202 3.51815 13.0353 3.62221 13.4799 3.87689C13.9245 4.13158 14.2749 4.52323 14.4786 4.99338L17.6136 11.9922V12.01C17.7696 12.3699 17.834 12.7628 17.8011 13.1537C17.7682 13.5446 17.639 13.9212 17.4251 14.2499C17.3984 14.29 17.3702 14.3271 17.3405 14.3642L14.25 18.0277C15.3618 20.2869 17.7249 22.6292 20.0138 23.744L23.6268 20.6699C23.6623 20.64 23.6995 20.6123 23.7381 20.5867C24.0666 20.3677 24.4445 20.2339 24.8377 20.1976C25.2309 20.1613 25.6269 20.2237 25.9899 20.3789L26.0092 20.3878L33.0021 23.5214C33.4731 23.7244 33.8657 24.0744 34.1212 24.5191C34.3768 24.9638 34.4815 25.4792 34.4197 25.9884ZM32.0625 25.6915H32.0462L25.0696 22.5669L21.4552 25.641C21.4201 25.6707 21.3834 25.6985 21.3453 25.7242C21.0036 25.9522 20.6085 26.0876 20.1987 26.1173C19.7889 26.1469 19.3785 26.0698 19.0074 25.8934C16.2272 24.55 13.4559 21.7995 12.111 19.0489C11.9329 18.6806 11.853 18.2725 11.879 17.8642C11.905 17.4559 12.0361 17.0612 12.2595 16.7185C12.2846 16.6782 12.3129 16.64 12.3441 16.6042L15.4375 12.9363L12.3203 5.95971C12.3197 5.95379 12.3197 5.94782 12.3203 5.9419C10.8809 6.12967 9.55921 6.83573 8.60287 7.92786C7.64654 9.02 7.12112 10.4233 7.12501 11.8749C7.13051 16.9124 9.13406 21.7419 12.6961 25.3039C16.2581 28.8659 21.0876 30.8694 26.125 30.8749C27.5758 30.8799 28.9787 30.3563 30.0715 29.4021C31.1642 28.4478 31.872 27.1282 32.0625 25.69V25.6915Z" fill="#06B3FF"/>
</svg>
