<svg width="85" height="85" viewBox="0 0 85 85" fill="none" xmlns="http://www.w3.org/2000/svg">
<path d="M14.1663 36.8333V14.1667C14.1663 13.2274 14.5395 12.3265 15.2037 11.6623C15.8679 10.9981 16.7687 10.625 17.708 10.625H35.4163V3.54167H49.583V10.625H67.2913C68.2306 10.625 69.1315 10.9981 69.7957 11.6623C70.4599 12.3265 70.833 13.2274 70.833 14.1667V36.8333L74.6793 37.9879C75.5515 38.2495 76.2895 38.837 76.74 39.6284C77.1904 40.4199 77.3187 41.3544 77.0982 42.2379L71.7255 63.7288C69.4387 63.8459 69.1616 63.5175 67 62.7619L71.7255 41L42.4997 32.5L13.2738 41L18 62.7619C15.8384 63.5175 15.5607 63.8459 13.2738 63.7288L7.90467 42.2379C7.68402 41.3549 7.81182 40.4207 8.26157 39.6294C8.71132 38.838 9.44848 38.2502 10.3201 37.9879L14.1663 36.8333ZM18.5 35.5L42.4997 28.3333L67.2913 34.7083V14.1667H18.5V35.5ZM14.1663 70.8333C19.3948 70.8406 24.441 68.9129 28.333 65.4217C32.225 68.9129 37.2712 70.8406 42.4997 70.8333C47.7281 70.8406 52.7743 68.9129 56.6663 65.4217C60.5584 68.9129 65.6046 70.8406 70.833 70.8333H77.9163V75L70.833 75.5C65.8592 75.5081 60.9718 74.4903 56.6663 72C52.3609 74.4903 47.4734 75.5081 42.4997 75.5C37.5259 75.5081 32.6384 74.4903 28.333 72C24.0276 74.4903 19.1401 75.5081 14.1663 75.5H7.08301V70.8333H14.1663Z" fill="white"/>
</svg>
