<svg width="40" height="40" viewBox="0 0 40 40" fill="none" xmlns="http://www.w3.org/2000/svg">
<path fill-rule="evenodd" clip-rule="evenodd" d="M20 37.5C22.6834 37.5 27.2734 34 27.2734 20C27.2734 6 22.6834 2.5 20 2.5C17.3167 2.5 12.7275 6.23583 12.7275 20C12.7275 33.7642 17.3167 37.5 20 37.5Z" stroke="#162F86" stroke-width="3" stroke-linecap="round" stroke-linejoin="round"/>
<path fill-rule="evenodd" clip-rule="evenodd" d="M4.25438 29.1667C5.59604 31.51 11.0402 33.6842 23.6369 26.3509C36.2335 19.0175 37.0885 13.1767 35.746 10.8342C34.4044 8.49003 28.7485 6.43919 16.3644 13.6492C3.97938 20.8592 2.91271 26.8234 4.25438 29.1667Z" stroke="#162F86" stroke-width="3" stroke-linecap="round" stroke-linejoin="round"/>
<path fill-rule="evenodd" clip-rule="evenodd" d="M4.25441 10.8334C2.91274 13.1767 3.76691 19.0175 16.3644 26.3509C28.9611 33.6842 34.4044 31.51 35.7461 29.1675C37.0877 26.8234 36.0211 20.8592 23.6369 13.6492C11.2519 6.43919 5.59607 8.49002 4.25441 10.8334Z" stroke="#162F86" stroke-width="3" stroke-linecap="round" stroke-linejoin="round"/>
</svg>
