<svg width="100" height="100" viewBox="0 0 100 100" fill="none" xmlns="http://www.w3.org/2000/svg">
<path d="M70.8809 13.9375C64.5384 10.2562 57.3331 8.32242 49.9997 8.3333C26.9872 8.3333 8.33301 26.9875 8.33301 50C8.33301 73.0125 26.9872 91.6666 49.9997 91.6666C73.0122 91.6666 91.6663 73.0125 91.6663 50C91.6663 42.4437 89.6538 35.3541 86.1372 29.2458" stroke="#06B3FF" stroke-width="6" stroke-linecap="round" stroke-linejoin="round"/>
<path d="M66.5622 33.4375C66.5622 33.4375 59.5039 52.2812 56.2497 55.5354C54.6869 57.0983 52.5672 57.9763 50.357 57.9763C48.1468 57.9763 46.0271 57.0983 44.4643 55.5354C42.9014 53.9726 42.0234 51.8529 42.0234 49.6427C42.0234 47.4325 42.9014 45.3128 44.4643 43.75C47.7184 40.4958 66.5622 33.4375 66.5622 33.4375Z" stroke="#06B3FF" stroke-width="6" stroke-linejoin="round"/>
</svg>
