<svg width="56" height="56" viewBox="0 0 56 56" fill="none" xmlns="http://www.w3.org/2000/svg">
<g clip-path="url(#clip0_62_674)">
<path d="M28 0C20.5756 0 13.4487 2.95181 8.20312 8.20094C2.95209 13.4521 0.00145456 20.5738 0 28C0 35.4231 2.95312 42.5499 8.20312 47.7991C13.4487 53.0482 20.5756 56 28 56C35.4244 56 42.5513 53.0482 47.7969 47.7991C53.0469 42.5499 56 35.4231 56 28C56 20.5769 53.0469 13.4501 47.7969 8.20094C42.5513 2.95181 35.4244 0 28 0Z" fill="url(#paint0_linear_62_674)"/>
<path d="M12.674 27.7043C20.8377 24.1483 26.2802 21.8038 29.0015 20.6711C36.7802 17.4367 38.3946 16.8749 39.449 16.8559C39.6808 16.8522 40.1971 16.9095 40.534 17.1818C40.814 17.4115 40.8927 17.7221 40.9321 17.9402C40.9671 18.1581 41.0152 18.6547 40.9759 19.0423C40.5559 23.4698 38.7315 34.2139 37.804 39.173C37.4146 41.2712 36.6402 41.9747 35.8921 42.0434C34.2646 42.193 33.0309 40.9689 31.4559 39.9368C28.9927 38.3212 27.6015 37.3158 25.2084 35.7395C22.4434 33.9177 24.2371 32.9163 25.8121 31.28C26.2234 30.8517 33.3896 24.3352 33.5252 23.7441C33.5427 23.6702 33.5602 23.3945 33.394 23.2493C33.2321 23.1036 32.9915 23.1535 32.8165 23.1928C32.5671 23.2488 28.634 25.8511 21.004 30.9992C19.8884 31.7665 18.8777 32.1406 17.9677 32.1209C16.9702 32.0995 15.0452 31.5557 13.6146 31.091C11.8646 30.521 10.469 30.2195 10.5915 29.2513C10.6527 28.7473 11.3484 28.2315 12.674 27.7043Z" fill="white"/>
</g>
<defs>
<linearGradient id="paint0_linear_62_674" x1="2800" y1="0" x2="2800" y2="5600" gradientUnits="userSpaceOnUse">
<stop stop-color="#2AABEE"/>
<stop offset="1" stop-color="#229ED9"/>
</linearGradient>
<clipPath id="clip0_62_674">
<rect width="56" height="56" fill="white"/>
</clipPath>
</defs>
</svg>
