<svg width="39" height="38" viewBox="0 0 39 38" fill="none" xmlns="http://www.w3.org/2000/svg">
<g clip-path="url(#clip0_62_712)">
<path d="M0.5 38L3.768 28.1967C2.10976 25.4076 1.15517 22.1527 1.15517 18.6724C1.15517 8.36 9.51517 0 19.8276 0C30.14 0 38.5 8.36 38.5 18.6724C38.5 28.9848 30.14 37.3448 19.8276 37.3448C16.69 37.3448 13.7351 36.5671 11.14 35.2004L0.5 38Z" fill="#2CB742"/>
<path d="M31.7407 24.8868C30.8785 23.2574 27.699 21.3941 27.699 21.3941C26.9796 20.984 26.1115 20.9381 25.7013 21.6693C25.7013 21.6693 24.6681 22.9082 24.4054 23.0864C23.2051 23.8995 22.0933 23.868 20.971 22.7457L18.3628 20.1375L15.7545 17.5292C14.6322 16.4069 14.6008 15.2951 15.4138 14.0948C15.592 13.8321 16.831 12.7989 16.831 12.7989C17.5621 12.3881 17.5163 11.5206 17.1061 10.8013C17.1061 10.8013 15.2428 7.62171 13.6134 6.75951C12.9202 6.39261 12.0692 6.52102 11.5149 7.0753L10.3631 8.22709C6.70921 11.881 8.50831 16.006 12.1622 19.6599L15.5016 22.9993L18.841 26.3387C22.4949 29.9926 26.6199 31.7917 30.2738 28.1378L31.4256 26.986C31.9799 26.4304 32.1076 25.5793 31.7407 24.8868Z" fill="white"/>
</g>
<defs>
<clipPath id="clip0_62_712">
<rect width="38" height="38" fill="white" transform="translate(0.5)"/>
</clipPath>
</defs>
</svg>
