<svg width="185" height="54" viewBox="0 0 185 54" fill="none" xmlns="http://www.w3.org/2000/svg">
<path d="M59.9961 13.5698C62.327 13.5698 64.1451 14.6387 64.1451 17.0552C64.1451 18.0776 63.609 19.007 62.4435 19.4717C63.912 19.9132 64.518 21.3538 64.518 22.2832C64.518 24.9554 62.3969 25.7686 59.9728 25.7686C58.0615 25.7686 56.2668 25.7686 54.3555 25.7686V13.5698H59.9961ZM56.3367 18.612H60.0194C61.4879 18.612 62.2105 18.0311 62.2105 17.0784C62.2105 16.2187 61.4646 15.3125 59.9961 15.3125H56.3367V18.612ZM56.3367 23.933H59.9961C61.0683 23.933 62.5834 23.5845 62.5834 22.2368C62.5834 20.9356 61.1383 20.3314 60.0194 20.3314C58.7841 20.3314 57.572 20.3314 56.3367 20.3314V23.933Z" fill="white"/>
<path d="M66.5225 25.7454V13.5698H68.4571V25.7686H66.5225V25.7454Z" fill="white"/>
<path d="M81.7898 16.4046L77.6409 22.1671H77.2214L73.1191 16.4046V25.7454H71.1611V13.5698C71.9303 13.5698 72.6529 13.5698 73.4221 13.5698L77.4544 19.2858L81.4635 13.5698H83.7244V25.7686H81.7665V16.4046H81.7898Z" fill="white"/>
<path d="M86.4277 25.7454V13.5698H88.3623V25.7686H86.4277V25.7454Z" fill="white"/>
<path d="M99.504 22.2368V13.5698H101.462V25.7686H99.9701L93.0242 17.1714V25.7686H91.043V13.5698H92.5347L99.504 22.2368Z" fill="white"/>
<path d="M104.143 25.7454V13.5698H106.077V25.7686H104.143V25.7454Z" fill="white"/>
<path d="M62.6299 30.6249C62.0472 29.7885 60.8817 29.2773 59.5998 29.2773C57.9682 29.2773 56.7794 29.9511 56.7794 31.1129C56.7794 32.2979 58.1313 32.6232 59.7396 32.8556C62.2569 33.2041 64.6577 33.9012 64.6577 36.643C64.6344 39.3848 62.1404 40.4072 59.5998 40.4072C57.2689 40.4072 55.4508 39.6869 54.332 37.6422L55.8005 36.6663C56.6629 38.1533 58.2012 38.6645 59.5998 38.6645C61.0682 38.6645 62.6998 38.1766 62.6998 36.643C62.6998 35.3186 61.278 34.8771 59.5765 34.6447C57.1524 34.3194 54.8448 33.7153 54.8448 31.0897C54.8215 28.557 57.3621 27.5811 59.5531 27.5811C61.3246 27.5811 63.0727 27.9993 64.1216 29.6258L62.6299 30.6249Z" fill="white"/>
<path d="M74.89 40.1283V35.0629H68.4335V40.1283H66.4756V27.9295H68.4335V33.2272H74.89V27.9062H76.8246V40.105H74.89V40.1283Z" fill="white"/>
<path d="M79.5283 40.1282V27.9294H81.4629V40.1282H79.5283Z" fill="white"/>
<path d="M86.1249 36.3641V40.1051H84.167V27.9063C86.0317 27.9063 87.9663 27.8831 89.831 27.8831C95.6581 27.8831 95.6814 36.3177 89.831 36.3409H86.1249V36.3641ZM86.1249 34.575H89.831C93.0709 34.575 93.0475 29.6954 89.831 29.6954H86.1249V34.575Z" fill="white"/>
<path d="M101.462 27.9294C103.793 27.9294 105.611 28.9983 105.611 31.4148C105.611 32.4372 105.075 33.3666 103.909 33.8313C105.378 34.2728 105.984 35.7134 105.984 36.6429C105.984 39.315 103.863 40.1282 101.439 40.1282C99.5274 40.1282 97.7326 40.1282 95.8213 40.1282V27.9294H101.462ZM97.7792 32.9716H101.462C102.93 32.9716 103.653 32.3907 103.653 31.4381C103.653 30.5783 102.907 29.6721 101.439 29.6721H97.7792V32.9716ZM97.7792 38.3158H101.439C102.511 38.3158 104.026 37.9673 104.026 36.6196C104.026 35.3184 102.581 34.7143 101.462 34.7143C100.227 34.7143 99.0146 34.7143 97.7792 34.7143V38.3158Z" fill="white"/>
<path d="M118.524 40.1282H116.239L112.51 35.9226H109.923V40.1282H107.965V27.9294C109.876 27.9294 111.764 27.9527 113.652 27.9527C116.472 27.9527 117.964 29.8813 117.964 31.9492C117.964 33.6919 117.055 35.3881 114.654 35.7367L118.314 39.8029L118.524 40.1282ZM109.923 29.6954V34.1102H113.652C115.284 34.1102 115.983 33.0878 115.983 31.926C115.983 30.8339 115.26 29.6721 113.652 29.6721H109.923V29.6954Z" fill="white"/>
<path d="M131.926 34.0639C131.926 37.3634 129.921 40.3608 125.679 40.3608C121.437 40.3608 119.433 37.2705 119.433 34.0639C119.433 30.3462 122.043 27.6741 125.726 27.6741C129.898 27.7205 131.926 30.7877 131.926 34.0639ZM125.679 38.5949C128.709 38.5949 129.991 36.4572 129.991 34.1104C129.991 31.8565 128.709 29.5329 125.703 29.4865C122.882 29.4865 121.344 31.4615 121.344 34.1104C121.414 36.2713 122.649 38.5949 125.679 38.5949Z" fill="white"/>
<path d="M143.23 27.9992L137.613 33.8081L143.72 39.9889V40.105H141.272L135.818 34.5517V40.105H133.86V27.9062H135.818V33.1575L140.806 27.9062H143.23V27.9992Z" fill="white"/>
<path d="M153.837 40.1282H144.793C144.793 36.062 144.793 31.9957 144.793 27.9294H153.767V29.8348H146.751V33.1343H153.487V34.9467H146.751V38.2229H153.837V40.1282Z" fill="white"/>
<path d="M166.539 40.1282H164.255L160.526 35.9226H157.938V40.1282H155.98V27.9294C157.892 27.9294 159.78 27.9527 161.668 27.9527C164.488 27.9527 165.98 29.8813 165.98 31.9492C165.98 33.6919 165.071 35.3881 162.67 35.7367L166.329 39.8029L166.539 40.1282ZM157.938 29.6954V34.1102H161.668C163.299 34.1102 163.999 33.0878 163.999 31.926C163.999 30.8339 163.276 29.6721 161.668 29.6721H157.938V29.6954Z" fill="white"/>
<path d="M175.49 30.6249C174.908 29.7885 173.742 29.2773 172.46 29.2773C170.829 29.2773 169.64 29.9511 169.64 31.1129C169.64 32.2979 170.992 32.6232 172.6 32.8556C175.117 33.2041 177.518 33.9012 177.518 36.643C177.495 39.3848 175.001 40.4072 172.46 40.4072C170.129 40.4072 168.311 39.6869 167.192 37.6422L168.661 36.6663C169.523 38.1533 171.062 38.6645 172.46 38.6645C173.929 38.6645 175.56 38.1766 175.56 36.643C175.56 35.3186 174.138 34.8771 172.437 34.6447C170.013 34.3194 167.705 33.7153 167.705 31.0897C167.682 28.557 170.223 27.5811 172.414 27.5811C174.185 27.5811 175.933 27.9993 176.982 29.6258L175.49 30.6249Z" fill="white"/>
<path d="M35.988 18.8442C32.6549 15.5215 30.0443 11.6644 28.203 7.48193C26.3616 11.6644 23.751 15.5215 20.4179 18.8442C16.875 22.3761 12.7494 25.1179 8.22754 26.9535C12.7261 28.7892 16.875 31.531 20.3946 35.0628C23.7277 38.3855 26.3383 42.2427 28.1797 46.4251C30.021 42.2427 32.6316 38.3855 35.9647 35.0628C39.5076 31.531 43.6332 28.8124 48.1318 26.9535C43.6565 25.1179 39.5309 22.3761 35.988 18.8442ZM34.5895 33.6687C33.7271 34.5284 32.888 35.4578 32.1188 36.3873C30.5804 34.2496 29.2752 31.9725 28.2263 29.5792C27.3872 31.4613 26.4082 33.2969 25.2661 35.0396C25.709 35.574 26.1518 36.1084 26.5714 36.6661C27.1541 35.8064 27.7135 34.9002 28.2496 33.994C29.0421 35.3881 29.9278 36.7358 30.8835 38.0138C29.9278 39.2917 29.0421 40.6394 28.2496 42.0336C26.5248 38.9897 24.3804 36.1781 21.863 33.6919C19.1826 31.0198 16.1758 28.7659 12.8893 26.9768C16.1758 25.1876 19.1826 22.957 21.863 20.2616C24.3804 17.7522 26.5014 14.9639 28.2496 11.92C29.9744 14.9639 32.1188 17.7754 34.6361 20.2616C37.3166 22.9337 40.3234 25.1876 43.6099 26.9768C40.2768 28.7427 37.27 30.9733 34.5895 33.6687Z" fill="#06B3FF"/>
<path d="M32.2588 31.8097L28.2031 28.4405L24.1475 31.8097V21.4233L28.2031 13.9646L32.2588 21.4233V31.8097ZM28.2031 25.8613L30.2776 27.5808V21.9345L28.2031 18.1006L26.1054 21.9345V27.604L28.2031 25.8613Z" fill="white"/>
</svg>
